{
	"asset":{
		"generator":"Khronos glTF Blender I/O v4.0.44",
		"version":"2.0"
	},
	"scene":0,
	"scenes":[
		{
			"name":"Scene",
			"nodes":[
				0
			]
		}
	],
	"nodes":[
		{
			"mesh":0,
			"name":"hatchet"
		}
	],
	"materials":[
		{
			"doubleSided":true,
			"name":"hatchet",
			"normalTexture":{
				"index":0
			},
			"pbrMetallicRoughness":{
				"baseColorTexture":{
					"index":1
				},
				"metallicRoughnessTexture":{
					"index":2
				}
			}
		}
	],
	"meshes":[
		{
			"name":"Plane.002",
			"primitives":[
				{
					"attributes":{
						"POSITION":0,
						"NORMAL":1,
						"TEXCOORD_0":2
					},
					"indices":3,
					"material":0
				}
			]
		}
	],
	"textures":[
		{
			"sampler":0,
			"source":0
		},
		{
			"sampler":0,
			"source":1
		},
		{
			"sampler":0,
			"source":2
		}
	],
	"images":[
		{
			"mimeType":"image/jpeg",
			"name":"hatchet_nor_gl_1k",
			"uri":"hatchet_nor_gl_1k.jpg"
		},
		{
			"mimeType":"image/jpeg",
			"name":"hatchet_diff_1k",
			"uri":"hatchet_diff_1k.jpg"
		},
		{
			"mimeType":"image/jpeg",
			"name":"hatchet_arm_1k",
			"uri":"hatchet_arm_1k.jpg"
		}
	],
	"accessors":[
		{
			"bufferView":0,
			"componentType":5126,
			"count":4157,
			"max":[
				0.058378830552101135,
				1.0344842672348022,
				0.351632297039032
			],
			"min":[
				-0.06026259437203407,
				-0.281899631023407,
				-0.12375965714454651
			],
			"type":"VEC3"
		},
		{
			"bufferView":1,
			"componentType":5126,
			"count":4157,
			"type":"VEC3"
		},
		{
			"bufferView":2,
			"componentType":5126,
			"count":4157,
			"type":"VEC2"
		},
		{
			"bufferView":3,
			"componentType":5123,
			"count":15750,
			"type":"SCALAR"
		}
	],
	"bufferViews":[
		{
			"buffer":0,
			"byteLength":49884,
			"byteOffset":0,
			"target":34962
		},
		{
			"buffer":0,
			"byteLength":49884,
			"byteOffset":49884,
			"target":34962
		},
		{
			"buffer":0,
			"byteLength":33256,
			"byteOffset":99768,
			"target":34962
		},
		{
			"buffer":0,
			"byteLength":31500,
			"byteOffset":133024,
			"target":34963
		}
	],
	"samplers":[
		{
			"magFilter":9729,
			"minFilter":9987
		}
	],
	"buffers":[
		{
			"byteLength":164524,
			"uri":"hatchet_1k.bin"
		}
	]
}
