{
	"asset":{
		"generator":"Khronos glTF Blender I/O v4.0.44",
		"version":"2.0"
	},
	"scene":0,
	"scenes":[
		{
			"name":"Scene",
			"nodes":[
				2,
				4
			]
		}
	],
	"nodes":[
		{
			"mesh":0,
			"name":"Suzanne",
			"rotation":[
				0,
				0.17357976734638214,
				0,
				0.9848198294639587
			],
			"translation":[
				0.5801302194595337,
				1.2445241212844849,
				-1.5177181959152222
			]
		},
		{
			"children":[
				0
			],
			"mesh":1,
			"name":"Cube.002"
		},
		{
			"children":[
				1
			],
			"mesh":2,
			"name":"Cube.001"
		},
		{
			"mesh":3,
			"name":"Cube"
		},
		{
			"children":[
				3
			],
			"mesh":4,
			"name":"Cone"
		}
	],
	"materials":[
		{
			"doubleSided":true,
			"name":"Material.003",
			"pbrMetallicRoughness":{
				"baseColorFactor":[
					0.44902998208999634,
					0.026781447231769562,
					0.8000937700271606,
					1
				],
				"metallicFactor":0.3388429880142212,
				"roughnessFactor":0.3429751992225647
			}
		},
		{
			"doubleSided":true,
			"name":"Material",
			"pbrMetallicRoughness":{
				"baseColorFactor":[
					0.02652834728360176,
					0.8001489639282227,
					0,
					1
				],
				"metallicFactor":0,
				"roughnessFactor":0.5
			}
		},
		{
			"doubleSided":true,
			"name":"Material.005",
			"pbrMetallicRoughness":{
				"baseColorFactor":[
					0,
					0,
					0,
					1
				],
				"metallicFactor":0,
				"roughnessFactor":0.1694214940071106
			}
		},
		{
			"doubleSided":true,
			"name":"Material.001",
			"pbrMetallicRoughness":{
				"baseColorFactor":[
					0.7889102697372437,
					0.8001565933227539,
					0.20690478384494781,
					1
				],
				"metallicFactor":0
			}
		},
		{
			"doubleSided":true,
			"name":"Material.002",
			"pbrMetallicRoughness":{
				"baseColorFactor":[
					0.28872960805892944,
					0.4144588112831116,
					0.8001260757446289,
					1
				],
				"metallicFactor":0,
				"roughnessFactor":0.20247933268547058
			}
		},
		{
			"doubleSided":true,
			"name":"Material.004",
			"pbrMetallicRoughness":{
				"baseColorFactor":[
					0.8004969358444214,
					0.5638269782066345,
					0.15852956473827362,
					1
				],
				"roughnessFactor":0.11570248007774353
			}
		}
	],
	"meshes":[
		{
			"name":"Suzanne",
			"primitives":[
				{
					"attributes":{
						"POSITION":0,
						"NORMAL":1,
						"TEXCOORD_0":2
					},
					"indices":3,
					"material":0
				}
			]
		},
		{
			"name":"Cube.002",
			"primitives":[
				{
					"attributes":{
						"POSITION":4,
						"NORMAL":5,
						"TEXCOORD_0":6
					},
					"indices":7,
					"material":1
				},
				{
					"attributes":{
						"POSITION":8,
						"NORMAL":9,
						"TEXCOORD_0":10
					},
					"indices":11,
					"material":2
				}
			]
		},
		{
			"name":"Cube.001",
			"primitives":[
				{
					"attributes":{
						"POSITION":12,
						"NORMAL":13,
						"TEXCOORD_0":14
					},
					"indices":15,
					"material":3
				}
			]
		},
		{
			"name":"Cube",
			"primitives":[
				{
					"attributes":{
						"POSITION":16,
						"NORMAL":17,
						"TEXCOORD_0":18
					},
					"indices":15,
					"material":4
				}
			]
		},
		{
			"name":"Cone",
			"primitives":[
				{
					"attributes":{
						"POSITION":19,
						"NORMAL":20,
						"TEXCOORD_0":21
					},
					"indices":22,
					"material":5
				}
			]
		}
	],
	"accessors":[
		{
			"bufferView":0,
			"componentType":5126,
			"count":555,
			"max":[
				1.3671875,
				0.984375,
				0.8515625
			],
			"min":[
				-1.3671875,
				-0.984375,
				-0.8515625
			],
			"type":"VEC3"
		},
		{
			"bufferView":1,
			"componentType":5126,
			"count":555,
			"type":"VEC3"
		},
		{
			"bufferView":2,
			"componentType":5126,
			"count":555,
			"type":"VEC2"
		},
		{
			"bufferView":3,
			"componentType":5123,
			"count":2904,
			"type":"SCALAR"
		},
		{
			"bufferView":4,
			"componentType":5126,
			"count":68,
			"max":[
				0.8985167741775513,
				0.6885009407997131,
				-0.40704596042633057
			],
			"min":[
				-3.765113353729248,
				-2.3173635005950928,
				-3.455967903137207
			],
			"type":"VEC3"
		},
		{
			"bufferView":5,
			"componentType":5126,
			"count":68,
			"type":"VEC3"
		},
		{
			"bufferView":6,
			"componentType":5126,
			"count":68,
			"type":"VEC2"
		},
		{
			"bufferView":7,
			"componentType":5123,
			"count":108,
			"type":"SCALAR"
		},
		{
			"bufferView":8,
			"componentType":5126,
			"count":12,
			"max":[
				0.8985167741775513,
				0.6885009407997131,
				-1.4233531951904297
			],
			"min":[
				-3.765113353729248,
				-2.3173635005950928,
				-1.4233533143997192
			],
			"type":"VEC3"
		},
		{
			"bufferView":9,
			"componentType":5126,
			"count":12,
			"type":"VEC3"
		},
		{
			"bufferView":10,
			"componentType":5126,
			"count":12,
			"type":"VEC2"
		},
		{
			"bufferView":11,
			"componentType":5123,
			"count":24,
			"type":"SCALAR"
		},
		{
			"bufferView":12,
			"componentType":5126,
			"count":24,
			"max":[
				0.6606082916259766,
				-0.6094204187393188,
				1.7905840873718262
			],
			"min":[
				-2.3883135318756104,
				-1.019442081451416,
				-1.2583377361297607
			],
			"type":"VEC3"
		},
		{
			"bufferView":13,
			"componentType":5126,
			"count":24,
			"type":"VEC3"
		},
		{
			"bufferView":14,
			"componentType":5126,
			"count":24,
			"type":"VEC2"
		},
		{
			"bufferView":15,
			"componentType":5123,
			"count":36,
			"type":"SCALAR"
		},
		{
			"bufferView":16,
			"componentType":5126,
			"count":24,
			"max":[
				-0.7337213754653931,
				0.28273940086364746,
				2.508274555206299
			],
			"min":[
				-2.1227822303771973,
				-1.1063215732574463,
				1.1192134618759155
			],
			"type":"VEC3"
		},
		{
			"bufferView":17,
			"componentType":5126,
			"count":24,
			"type":"VEC3"
		},
		{
			"bufferView":18,
			"componentType":5126,
			"count":24,
			"type":"VEC2"
		},
		{
			"bufferView":19,
			"componentType":5126,
			"count":97,
			"max":[
				0.29489666223526,
				1.2937848567962646,
				0.29489666223526
			],
			"min":[
				-0.2948966920375824,
				-0.6218324303627014,
				-0.29489666223526
			],
			"type":"VEC3"
		},
		{
			"bufferView":20,
			"componentType":5126,
			"count":97,
			"type":"VEC3"
		},
		{
			"bufferView":21,
			"componentType":5126,
			"count":97,
			"type":"VEC2"
		},
		{
			"bufferView":22,
			"componentType":5123,
			"count":378,
			"type":"SCALAR"
		}
	],
	"bufferViews":[
		{
			"buffer":0,
			"byteLength":6660,
			"byteOffset":0,
			"target":34962
		},
		{
			"buffer":0,
			"byteLength":6660,
			"byteOffset":6660,
			"target":34962
		},
		{
			"buffer":0,
			"byteLength":4440,
			"byteOffset":13320,
			"target":34962
		},
		{
			"buffer":0,
			"byteLength":5808,
			"byteOffset":17760,
			"target":34963
		},
		{
			"buffer":0,
			"byteLength":816,
			"byteOffset":23568,
			"target":34962
		},
		{
			"buffer":0,
			"byteLength":816,
			"byteOffset":24384,
			"target":34962
		},
		{
			"buffer":0,
			"byteLength":544,
			"byteOffset":25200,
			"target":34962
		},
		{
			"buffer":0,
			"byteLength":216,
			"byteOffset":25744,
			"target":34963
		},
		{
			"buffer":0,
			"byteLength":144,
			"byteOffset":25960,
			"target":34962
		},
		{
			"buffer":0,
			"byteLength":144,
			"byteOffset":26104,
			"target":34962
		},
		{
			"buffer":0,
			"byteLength":96,
			"byteOffset":26248,
			"target":34962
		},
		{
			"buffer":0,
			"byteLength":48,
			"byteOffset":26344,
			"target":34963
		},
		{
			"buffer":0,
			"byteLength":288,
			"byteOffset":26392,
			"target":34962
		},
		{
			"buffer":0,
			"byteLength":288,
			"byteOffset":26680,
			"target":34962
		},
		{
			"buffer":0,
			"byteLength":192,
			"byteOffset":26968,
			"target":34962
		},
		{
			"buffer":0,
			"byteLength":72,
			"byteOffset":27160,
			"target":34963
		},
		{
			"buffer":0,
			"byteLength":288,
			"byteOffset":27232,
			"target":34962
		},
		{
			"buffer":0,
			"byteLength":288,
			"byteOffset":27520,
			"target":34962
		},
		{
			"buffer":0,
			"byteLength":192,
			"byteOffset":27808,
			"target":34962
		},
		{
			"buffer":0,
			"byteLength":1164,
			"byteOffset":28000,
			"target":34962
		},
		{
			"buffer":0,
			"byteLength":1164,
			"byteOffset":29164,
			"target":34962
		},
		{
			"buffer":0,
			"byteLength":776,
			"byteOffset":30328,
			"target":34962
		},
		{
			"buffer":0,
			"byteLength":756,
			"byteOffset":31104,
			"target":34963
		}
	],
	"buffers":[
		{
			"byteLength":31860,
			"uri":"test_scene.bin"
		}
	]
}
